<svg width="1310" height="761" viewBox="0 0 1310 761" fill="none" xmlns="http://www.w3.org/2000/svg">
<path d="M1019.97 9.11298C713.153 87.2094 712.471 459.269 311.933 310.053C173.626 258.528 -15.1977 310.392 -132.028 359.079V402.643C-132.028 402.643 176.972 261 476.472 614C775.972 967 1309.97 575.5 1309.97 575.5V94.4009C1192.47 37.5423 1142.79 -22.1483 1019.97 9.11298Z" fill="url(#paint0_linear_1_3)"/>
<path d="M1029.94 48.4008C723.124 126.497 735.982 325.349 336.944 250.401C198.637 198.876 -8.02845 216.401 -132.028 313.479L-143.028 409.401C-143.028 409.401 207.472 174.4 506.972 527.4C806.472 880.4 1278.97 489.401 1278.97 489.401L1309.97 94.4009C1192.47 37.5423 1152.76 17.1395 1029.94 48.4008Z" fill="url(#paint1_linear_1_3)"/>
<path d="M972.934 14.0531C666.115 92.1495 710.971 385.001 311.933 310.053C173.626 258.528 -26.0655 303.975 -150.066 401.053L-162.066 474.975C-162.066 474.975 188.433 239.975 487.933 592.975C787.433 945.975 1259.93 554.975 1259.93 554.975L1292.93 102.053C1175.43 45.1945 1095.75 -17.2082 972.934 14.0531Z" fill="url(#paint2_linear_1_3)"/>
<defs>
<linearGradient id="paint0_linear_1_3" x1="1318" y1="521.111" x2="187.077" y2="644.158" gradientUnits="userSpaceOnUse">
<stop stop-color="#590D56"/>
<stop offset="1" stop-color="#8C1688"/>
</linearGradient>
<linearGradient id="paint1_linear_1_3" x1="1318" y1="521.111" x2="187.077" y2="644.158" gradientUnits="userSpaceOnUse">
<stop stop-color="#590D56"/>
<stop offset="1" stop-color="#8C1688"/>
</linearGradient>
<linearGradient id="paint2_linear_1_3" x1="1318" y1="521.111" x2="187.077" y2="644.158" gradientUnits="userSpaceOnUse">
<stop stop-color="#590D56"/>
<stop offset="1" stop-color="#8C1688"/>
</linearGradient>
</defs>
</svg>
