<svg width="2884" height="761" viewBox="0 0 2884 761" fill="none" xmlns="http://www.w3.org/2000/svg">
<path d="M1152 8.61221C845.181 86.7086 844.5 458.768 443.962 309.552C305.655 258.027 116.83 309.891 0 358.578V402.142C0 402.142 309 260.5 608.5 613.5C908 966.5 1442 575 1442 575V93.9001C1324.5 37.0415 1274.82 -22.6491 1152 8.61221Z" fill="url(#paint0_linear_1_4)"/>
<path d="M1732 8.61221C2038.82 86.7086 2039.5 458.768 2440.04 309.552C2578.35 258.027 2767.17 309.891 2884 358.578V402.142C2884 402.142 2575 260.5 2275.5 613.5C1976 966.5 1442 575 1442 575V93.9001C1559.5 37.0415 1609.18 -22.6491 1732 8.61221Z" fill="url(#paint1_linear_1_4)"/>
<defs>
<linearGradient id="paint0_linear_1_4" x1="1320" y1="521.112" x2="189.078" y2="644.159" gradientUnits="userSpaceOnUse">
<stop stop-color="#590D56"/>
<stop offset="1" stop-color="#8C1688"/>
</linearGradient>
<linearGradient id="paint1_linear_1_4" x1="1564" y1="521.112" x2="2694.92" y2="644.159" gradientUnits="userSpaceOnUse">
<stop stop-color="#590D56"/>
<stop offset="1" stop-color="#8C1688"/>
</linearGradient>
</defs>
</svg>
