<svg width="27" height="27" viewBox="0 0 27 27" fill="none" xmlns="http://www.w3.org/2000/svg">
<path d="M11.4624 9.17969C11.4624 10.4102 12.5171 11.4648 13.8062 11.4648C15.0366 11.4648 16.0913 10.4688 16.0913 9.17969C16.0913 7.83203 15.0366 6.83594 13.8062 6.83594C12.5171 6.83594 11.4624 7.83203 11.4624 9.17969ZM26.9312 3.4375C26.9312 1.91406 25.6421 0.625 24.1187 0.625H3.49365C1.91162 0.625 0.681152 1.91406 0.681152 3.4375V24.0625C0.681152 25.6445 1.91162 26.875 3.49365 26.875H24.1187C25.6421 26.875 26.9312 25.6445 26.9312 24.0625V3.4375ZM9.00146 9.17969C9.00146 6.54297 11.1694 4.375 13.8062 4.375C16.3843 4.375 18.5522 6.54297 18.5522 9.17969C18.5522 11.7578 16.3843 13.8672 13.8062 13.8672C11.1694 13.8672 9.00146 11.7578 9.00146 9.17969ZM19.2554 14.4531C19.7241 15.3906 19.1968 15.8594 17.9663 16.6211C16.9702 17.2656 15.6226 17.5 14.6851 17.6172L15.4468 18.3789L18.2593 21.1914C19.2554 22.2461 17.6147 23.8281 16.5601 22.832C15.8569 22.1289 14.8608 21.1328 13.8062 20.0195L10.9937 22.832C9.93896 23.8281 8.29834 22.1875 9.35303 21.1914C10.0562 20.4297 11.0522 19.4336 12.1069 18.3789L12.8687 17.6172C11.9897 17.5 10.5835 17.2656 9.5874 16.6211C8.35693 15.8594 7.82959 15.3906 8.29834 14.4531C8.59131 13.9258 9.29443 13.457 10.2905 14.2773C10.2905 14.2773 11.6382 15.332 13.8062 15.332C15.9155 15.332 17.2632 14.2773 17.2632 14.2773C18.2593 13.457 18.9624 13.9258 19.2554 14.4531Z" fill="#7A7A7A"/>
</svg>
